<svg t="1701262349421" class="icon" viewBox="0 0 1240 1024" version="1.1"
    xmlns="http://www.w3.org/2000/svg" p-id="4944" width="200" height="200">
    <path
        d="M727.552 1012.303324c-9.807324-20.48-16.369577-26.825915-18.31662-50.046197 14.328789-12.259155 31.996394-17.141183 53.002817-14.638873a5.220958 5.220958 0 0 0 4.146479-1.312451 5.379606 5.379606 0 0 0 1.766761-4.023888c-1.009577-94.66231-1.175437-188.286197-0.504789-280.878873 0.194704-27.02062 2.862873-46.635268 8.004507-58.843943 17.667606-41.825352 61.656338-66.415775 106.582535-65.47831 48.603944 4.254648 83.362254 41.320563 83.290141 91.727324-0.237972 105.140282-0.504789 209.869521-0.793239 314.194929-0.021634 2.235493 0.843718 4.377239 2.401352 5.963719 1.557634 1.586479 3.677746 2.473465 5.891605 2.473464l26.39324 0.216338c4.809915 0 7.232901-2.430197 7.28338-7.28338l1.947042-540.051831a3.894085 3.894085 0 0 0-3.966197-3.894084l-126.774084 1.586478-174.729015-0.721126c-2.451831-0.050479-3.69938 1.175437-3.749859 3.677746l-3.24507 431.017465-59.997747 0.072113c-2.740282 0-4.398873-1.348507-4.975774-4.03831l-2.16338-10.384226 1.730704-416.594929c0-2.740282-1.370141-4.110423-4.110423-4.110423l-364.241127 0.288451-48.099154-0.072113a2.992676 2.992676 0 0 0-2.185015 0.879775 3.136901 3.136901 0 0 0-0.915831 2.22107l-0.072112 537.31155a5.12 5.12 0 0 0 5.047887 5.12l42.907042 0.721126c3.367662 0.043268 4.853183-1.615324 4.470986-4.975774-2.545577-22.931831-0.959099-47.551099 4.759437-73.84338 21.150648-39.229296 53.918648-60.913577 98.289577-65.045634 50.428394-4.759437 107.902197-4.593577 172.421409 0.504788 9.468394 0.721127 21.201127 8.725634 35.190986 24.013522 9.302535 35.118873-16.297465 43.556056-45.575212 43.988732-36.827944 0.576901-84.53769 0.742761-143.143662 0.504789-39.08507-0.216338-70.021408 31.224789-52.209577 69.372394 12.187042 26.032676 20.407887 35.046761 6.20169 68.651268-46.966986 6.295437-97.114141 8.148732-150.427042 5.552676-20.429521-1.009577-34.087662-9.713577-40.96-26.104789-4.615211-10.961127-6.901183-25.311549-6.850704-43.051268 0.814873-180.858592 1.247549-361.623437 1.298028-542.287324a3.713803 3.713803 0 0 0-1.146592-2.682591 3.858028 3.858028 0 0 0-2.747493-1.067268c-32.667042 0.793239-89.636056 7.932394-114.298591-6.634366-17.934423-10.528451-25.621634-29.472451-23.076057-56.824789 6.850704-74.203944 62.738028-151.364507 137.302536-163.767887 24.806761-4.139268 63.293296-6.158423 115.452394-6.057465 97.402592 0.187493 197.011831 0.403831 298.83493 0.649014 10.095775 0 11.033239-2.913352 2.812394-8.725633-19.109859-13.48507-47.882817-26.393239-60.574648-44.349296-14.27831-20.292507-14.184563-42.38062 0.288451-66.271549 35.118873-57.978592 137.302535-60.935211 183.52676-17.23493 46.53431 44.032 92.881127 88.265915 139.03324 132.687324 1.968676 1.87493 4.305127 2.783549 6.994929 2.740282l99.587606-1.081691c2.920563 0 5.696901-1.269183 7.571831-3.461408a1221.632 1221.632 0 0 1 123.096338-121.726197 75.588507 75.588507 0 0 1 35.335211-17.162817c68.218592-13.412958 131.172958 27.47493 144.585916 95.621408 5.531042 27.835493-1.225915 51.870648-20.263662 72.112676a4502.787606 4502.787606 0 0 1-129.225916 132.182536 28.232113 28.232113 0 0 0-8.437183 19.975211c-0.937465 200.689577-1.947042 403.109859-3.749859 605.025352-0.288451 35.190986-9.014085 65.983099-48.603944 66.343662-77.160563 0.670648-154.342761 1.298028-231.553802 1.87493a350.280113 350.280113 0 0 1-32.811268-1.370141c-11.538028-1.060056-22.520789-2.120113-32.955493-3.172958z m-68.146479-853.092958l-0.576901-2.812394c-0.670648-2.884507 0.45431-4.644056 3.389295-5.264226 2.112901-0.432676 4.160901-0.266817 6.129578 0.504789l20.407887 17.162817a27.114366 27.114366 0 0 0 17.162817 6.562254l7.716057 0.216338a5.264225 5.264225 0 0 0 3.749859-9.086198l-85.525634-79.828732c-9.807324-9.187155-21.395831-13.412958-34.75831-12.691831l-19.470423 1.009578c-12.929803 0.670648-14.638873 5.408451-5.12 14.206197a5002.095775 5002.095775 0 0 1 81.703662 77.160563c3.605634 3.461408 8.343437 4.326761 14.206198 2.596056 1.824451-0.533634 1.968676-1.370141 0.432676-2.523943l-9.446761-7.211268z m224.991549 85.237183c1.925408-3.172958 2.596056-5.509408 2.019155-6.994929-0.526423-1.254761-2.213859-1.730704-5.047887-1.442254-11.393803 1.153803-22.787606 1.730704-34.181408 1.730704-222.972394 0.093746-445.923155 1.052845-668.845071 2.884507-50.406761 0.432676-83.073803 32.450704-102.616338 76.006761a9.446761 9.446761 0 0 0 8.581409 13.268732l780.763943 0.504789c35.767887 1.103324 70.115155 1.08169 103.049014-0.072113 13.701408-0.504789 21.056901-5.624789 29.782536-15.071549a6814.878648 6814.878648 0 0 1 148.263662-154.609577c43.267606-43.772394-22.64338-86.030423-51.849015-60.863099-21.583324 18.60507-70.814648 65.521577-147.68676 140.763944-14.710986 14.27831-38.724507 11.32169-57.257465 9.951549-3.605634-0.288451-5.264225-2.307606-4.975775-6.057465z m10.514029 383.617803a8.220845 8.220845 0 0 0-8.206423-8.235267l-39.373521-0.072113a8.220845 8.220845 0 0 0-8.235268 8.206422l-0.548056 314.411268a8.220845 8.220845 0 0 0 8.206423 8.235268l39.373521 0.072112a8.220845 8.220845 0 0 0 8.235267-8.213634l0.548057-314.411267z"
        fill="#343333" p-id="4945"></path>
    <path
        d="M668.347493 151.638535c-15.720563-17.379155-46.512676-56.247887-69.949296-57.834366-8.509296-0.533634-9.280901 1.658592-2.307605 6.562254 22.35493 15.864789 43.46231 35.479437 63.314929 58.843943l9.446761 7.211268c1.536 1.153803 1.391775 1.99031-0.432676 2.523943-5.862761 1.730704-10.600563 0.865352-14.206198-2.596056a5002.095775 5002.095775 0 0 0-81.703662-77.160563c-9.518873-8.797746-7.809803-13.535549 5.12-14.206197l19.470423-1.009578c13.362479-0.721127 24.950986 3.504676 34.75831 12.691831l85.525634 79.828732a5.264225 5.264225 0 0 1-3.749859 9.086198l-7.716057-0.216338a27.114366 27.114366 0 0 1-17.162817-6.562254l-20.407887-17.162817z"
        fill="#FEFEFE" p-id="4946"></path>
    <path
        d="M865.070873 330.405859l-1.514366-76.655774a7.499718 7.499718 0 0 1 9.302535-7.427606c5.047887 1.298028 8.891493 0.670648 11.538028-1.87493-0.288451 3.749859 1.370141 5.769014 4.975775 6.057465 18.532958 1.370141 42.546479 4.326761 57.257465-9.951549 76.872113-75.242366 126.103437-122.158873 147.68676-140.763944 29.205634-25.167324 95.11662 17.090704 51.849015 60.863099a6814.878648 6814.878648 0 0 0-148.263662 154.609577c-8.725634 9.446761-16.081127 14.566761-29.782536 15.071549-32.933859 1.153803-67.281127 1.175437-103.049014 0.072113zM668.347493 151.638535a10.651042 10.651042 0 0 0-6.129578-0.504789c-2.934986 0.620169-4.059944 2.379718-3.389295 5.264226l0.576901 2.812394c-19.85262-23.364507-40.96-42.979155-63.314929-58.843943-6.973296-4.903662-6.20169-7.095887 2.307605-6.562254 23.43662 1.586479 54.228732 40.455211 69.949296 57.834366z"
        fill="#CBCCCE" p-id="4947"></path>
    <path
        d="M884.39707 244.447549c-2.646535 2.545577-6.490141 3.172958-11.538028 1.87493a7.499718 7.499718 0 0 0-9.302535 7.427606l1.514366 76.655774-780.763943-0.504789a9.446761 9.446761 0 0 1-8.581409-13.268732c19.542535-43.556056 52.209577-75.574085 102.616338-76.006761 222.921915-1.831662 445.872676-2.790761 668.845071-2.884507 11.393803 0 22.787606-0.576901 34.181408-1.730704 2.834028-0.288451 4.521465 0.187493 5.047887 1.442254 0.576901 1.485521-0.093746 3.821972-2.019155 6.994929z"
        fill="#FEFEFE" p-id="4948"></path>
    <path
        d="M262.425239 401.220507c1.492732 140.518761 1.824451 280.97262 1.009578 421.354366-0.050479 13.456225 1.586479 28.794592 4.903662 46.007888-5.718535 26.292282-7.305014 50.911549-4.759437 73.84338 0.382197 3.360451-1.103324 5.019042-4.470986 4.975774l-42.907042-0.721126a5.12 5.12 0 0 1-5.047887-5.12l0.072112-537.31155c0-0.836507 0.331718-1.636958 0.915831-2.22107 0.576901-0.576901 1.370141-0.901408 2.185015-0.879775l48.099154 0.072113z"
        fill="#E4D1A8" p-id="4949"></path>
    <path
        d="M262.425239 401.220507l364.241127-0.288451c2.740282 0 4.110423 1.370141 4.110423 4.110423l-1.730704 416.594929c-21.778028-1.975887-40.044169 0.165859-54.805634 6.418029-13.989859-15.287887-25.722592-23.292394-35.190986-24.013522-64.519211-5.098366-121.993014-5.264225-172.421409-0.504788-44.37093 4.132056-77.13893 25.816338-98.289577 65.045634-3.317183-17.213296-4.954141-32.551662-4.903662-46.007888 0.814873-140.381746 0.483155-280.835606-1.009578-421.354366zM572.75493 575.60338c-10.982761-74.384225-81.278197-125.620282-157.003719-114.442817-36.366423 5.372394-69.148845 24.713014-91.128788 53.767212-21.987155 29.061408-31.369014 65.449465-26.097578 101.174084 10.982761 74.384225 81.270986 125.620282 157.003718 114.442817 36.366423-5.372394 69.141634-24.713014 91.128789-53.774422 21.987155-29.054197 31.369014-65.442254 26.097578-101.166874zM877.90693 402.013746l4.32676 135.067043c-44.926197-0.937465-88.91493 23.652958-106.582535 65.47831-5.141634 12.208676-7.809803 31.823324-8.004507 58.843943-0.670648 92.592676-0.504789 186.216563 0.504789 280.878873a5.379606 5.379606 0 0 1-1.766761 4.023888 5.220958 5.220958 0 0 1-4.146479 1.312451c-21.006423-2.50231-38.674028 2.379718-53.002817 14.638873-2.689803-22.311662-4.398873-60.170817-5.12-113.577465-0.093746-7.312225-2.740282-11.538028-7.932394-12.691831l3.24507-431.017465c0.050479-2.50231 1.298028-3.728225 3.749859-3.677746l174.729015 0.721126z"
        fill="#CA9F54" p-id="4950"></path>
    <path
        d="M882.23369 537.080789l-4.32676-135.067043 126.774084-1.586478a3.894085 3.894085 0 0 1 3.966197 3.894084l-1.947042 540.051831c-0.050479 4.853183-2.473465 7.28338-7.28338 7.28338l-26.39324-0.216338c-2.213859 0-4.326761-0.894197-5.891605-2.473464a8.401127 8.401127 0 0 1-2.401352-5.963719c0.288451-104.325408 0.555268-209.054648 0.793239-314.194929 0.072113-50.406761-34.686197-87.472676-83.290141-91.727324z"
        fill="#AC884A" p-id="4951"></path>
    <path
        d="M572.75493 575.60338c5.271437 35.72462-4.110423 72.112676-26.097578 101.174085-21.987155 29.054197-54.762366 48.387606-91.128789 53.76-75.725521 11.177465-146.020958-40.05138-157.003718-114.442817-5.271437-35.717408 4.110423-72.112676 26.097578-101.166873 21.979944-29.061408 54.762366-48.394817 91.128788-53.767212 75.725521-11.177465 146.020958 40.058592 157.003719 114.442817z m-74.665465 22.340507a64.468732 64.468732 0 1 0-128.937465 0 64.468732 64.468732 0 0 0 128.937465 0z"
        fill="#343333" p-id="4952"></path>
    <path
        d="M433.620732 597.943887m-64.468732 0a64.468732 64.468732 0 1 0 128.937465 0 64.468732 64.468732 0 1 0-128.937465 0Z"
        fill="#FEFEFE" p-id="4953"></path>
    <path
        d="M839.110625 619.745572m8.220833 0.014348l39.373461 0.06872q8.220833 0.014348 8.206484 8.235181l-0.548751 314.410788q-0.014348 8.220833-8.23518 8.206485l-39.373461-0.06872q-8.220833-0.014348-8.206485-8.235181l0.548751-314.410788q0.014348-8.220833 8.235181-8.206485Z"
        fill="#CA9F54" p-id="4954"></path>
    <path
        d="M629.046085 821.637408l2.16338 10.384226c0.576901 2.689803 2.235493 4.03831 4.975774 4.03831l59.997747-0.072113c5.192113 1.153803 7.838648 5.379606 7.932394 12.691831 0.721127 53.406648 2.430197 91.265803 5.12 113.577465 1.947042 23.220282 8.509296 29.566197 18.31662 50.046197-108.507944-0.721127-216.338028-1.615324-323.497465-2.668169-0.33893 0-10.146254-0.749972-29.421972-2.235493-11.970704-0.915831-23.674592 0.144225-35.118873 3.172958 14.206197-33.604507 5.985352-42.618592-6.20169-68.651268-17.811831-38.147606 13.124507-69.588732 52.209577-69.372394 58.605972 0.237972 106.315718 0.072113 143.143662-0.504789 29.277746-0.432676 54.877746-8.869859 45.575212-43.988732 14.761465-6.252169 33.027606-8.393915 54.805634-6.418029z"
        fill="#FCC556" p-id="4955"></path>
</svg>