<svg t="1701261999261" class="icon" viewBox="0 0 1024 1024" version="1.1"
    xmlns="http://www.w3.org/2000/svg" p-id="4472" width="200" height="200">
    <path
        d="M441.072742 11.982834c189.202649-39.400265 406.005828 72.832848 431.097218 280.006358 7.730861 63.657536-11.908238 116.098543-58.930861 157.329801-79.275232 69.509934-215.650331 37.704901-236.401589-72.42596-4.475762-23.938543 8.137748-51.132185-12.884768-69.374305-28.027762-24.453934-54.183841-22.555126-78.461457 5.696424-25.132079 29.343364-35.690808 63.677881-31.669404 103.010331a552.485298 552.485298 0 0 0 15.936424 85.988875c17.292715 64.288212 34.58543 125.456954 57.506755 190.626755 19.08302 54.346596 31.330331 90.308662 36.755496 107.89298 32.076291 104.230993-24.34543 214.361854-140.443973 218.769801-62.389404 2.305695-107.323338-23.958887-134.815364-78.80053-25.905166-51.606887-43.401325-100.229934-64.627285-160.381457-34.449801-97.788609-57.710199-196.662252-69.781192-296.620927-25.701722-212.598675 60.354967-424.519205 286.72-471.718146z m121.25245 211.378014c24.372556 9.54151 45.890119 22.85351 64.55947 39.942781 2.217536 2.034437 4.455417 2.061563 6.713643 0.067815 20.120583-18.079364 34.700715-40.078411 43.740397-65.983576 5.49298-15.665166 7.527417-37.84053 11.189404-56.014835 1.946278-9.717828-0.718834-16.838358-8.002119-21.361589-74.094199-45.883338-153.260927-57.933987-237.486623-36.145166-2.69902 0.678146-4.780927 2.814305-5.411602 5.54045-0.623894 2.719364 0.311947 5.581139 2.427761 7.412133a606.743735 606.743735 0 0 1 101.043709 110.809007c5.628609 8.002119 12.681325 12.342252 21.22596 15.73298z m-271.73298 14.647947c41.638146 13.793483 79.071788 36.802967 112.300927 69.035231 1.274914 1.25457 3.092344 1.763179 4.84196 1.369855a5.404821 5.404821 0 0 0 3.838305-3.336477c11.487788-31.059073 31.018384-55.648636 58.591788-73.782252a4.204503 4.204503 0 0 0 1.152848-5.764238 145.136742 145.136742 0 0 0-25.633908-30.041854c-27.349616-24.277616-53.275126-48.148344-77.783311-71.612186-4.428291-7.188344-10.599417-8.090278-18.513377-2.712583-36.891126 24.955762-67.495841 59.093616-91.820927 102.4-1.308821 2.305695-0.69849 3.86543 1.830993 4.679206l31.194702 9.765298z m383.287947 78.122384c-20.886887 9.270252-30.014728 22.15502-27.397086 38.654304 7.147656 45.076344 35.670464 65.373245 85.581987 60.897484 21.612503-6.822146 38.701775-20.005298 51.267814-39.535894 36.891126-57.167682 8.951523-141.664636-31.194702-190.152053-5.560795-6.733987-8.51751-5.737113-8.883708 2.983841-1.898808 46.886993-21.402278 86.938278-58.523974 120.167417-4.204503 3.756927-7.81902 6.082967-10.850331 6.984901z m-384.644238 290.314172c37.026755-32.34755 65.983576-61.44 106.807947-87.684238 3.567046-2.271788 5.309881-6.56445 4.340132-10.714702a626.999947 626.999947 0 0 1-15.393907-109.249272c-2.102252-41.299073-88.972715-82.191258-123.219073-94.465695l-27.058013-8.951523a4.814834 4.814834 0 0 0-6.171126 3.458543c-27.464901 112.233113-7.188344 231.858013 24.34543 340.903841a3.797616 3.797616 0 0 0 6.578014 1.424106l29.770596-34.72106z m31.737218 65.780132l-43.33351 42.58755c-2.366728 2.319258-3.187285 5.784583-2.102252 8.883709l44.079471 129.051126a2.509139 2.509139 0 0 0 4.340132 0.74596l36.755497-45.232318c26.990199-28.143046 63.270993-58.523974 102.196556-67.204238a5.086093 5.086093 0 0 0 3.729801-6.510199l-43.808211-138.680795c-1.125722-3.661987-3.187285-4.272318-6.171126-1.830993l-95.686358 78.190198z m95.550729 175.639736c-20.276556 19.462781-42.384106 44.486358-48.690861 70.323708a9.290596 9.290596 0 0 0 0.74596 6.510199c5.201377 10.579073 13.250967 18.493033 24.141987 23.735099 0.813775 2.760053 3.234755 4.407947 7.256159 4.950464 58.184901 8.341192 113.250331-38.247417 110.944635-98.466755-0.583205-16.139868-4.109563-32.320424-10.579073-48.555232a11.325033 11.325033 0 0 0-14.783576-6.306755c-29.248424 11.799735-52.257907 27.736159-69.035231 47.809272z"
        fill="#343333" p-id="4473"></path>
    <path
        d="M562.325192 223.360848c-8.544636-3.390728-15.597351-7.730861-21.22596-15.73298a606.743735 606.743735 0 0 0-101.043709-110.809007 7.574887 7.574887 0 0 1-2.427761-7.412133c0.630675-2.726146 2.712583-4.855523 5.411602-5.54045 84.225695-21.788821 163.392424-9.738172 237.486623 36.145166 7.283285 4.523232 9.948397 11.643762 8.002119 21.361589-3.661987 18.174305-5.696424 40.349669-11.189404 56.014835-9.039682 25.905166-23.619815 47.904212-43.740397 65.983576-2.258225 1.993748-4.496106 1.966623-6.713643-0.067815-18.669351-17.089272-40.186914-30.401272-64.55947-39.942781z"
        fill="#FF5646" p-id="4474"></path>
    <path
        d="M367.900821 123.876874c-30.516556 22.243179-45.639205 44.350728-60.287152 80.021192a242.403179 242.403179 0 0 1-17.021457 34.110729l-31.194702-9.765298c-2.529483-0.813775-3.139815-2.37351-1.830993-4.679206 24.325086-43.306384 54.929801-77.444238 91.820927-102.4 7.91396-5.377695 14.085086-4.475762 18.513377 2.712583z"
        fill="#FBD2BD" p-id="4475"></path>
    <path
        d="M367.900821 123.876874c24.508185 23.463841 50.433695 47.33457 77.783311 71.612186a145.136742 145.136742 0 0 1 25.633908 30.041854 4.204503 4.204503 0 0 1-1.152848 5.764238c-27.573404 18.133616-47.104 42.723179-58.591788 73.782252a5.404821 5.404821 0 0 1-3.838305 3.336477 5.242066 5.242066 0 0 1-4.84196-1.369855c-33.229139-32.232265-70.662781-55.241748-112.300927-69.035231a242.403179 242.403179 0 0 0 17.021457-34.110729c14.647947-35.670464 29.770596-57.778013 60.287152-80.021192zM732.06506 415.682967c-31.642278-27.803974-51.037245-60.985642-58.184901-99.551788 3.031311-0.901934 6.645828-3.227974 10.850331-6.984901 37.121695-33.229139 56.625166-73.280424 58.523974-120.167417 0.366199-8.720954 3.322914-9.717828 8.883708-2.983841 40.146225 48.487417 68.085828 132.984371 31.194702 190.152053-12.56604 19.530596-29.655311 32.713748-51.267814 39.535894z"
        fill="#FF5646" p-id="4476"></path>
    <path
        d="M261.77102 304.331444c-10.850331 33.547868-15.597351 68.472371-14.24106 104.77351 2.536265 67.773881 16.438252 133.554013 41.705961 197.340397l-29.770596 34.72106a3.797616 3.797616 0 0 1-6.578014-1.424106c-31.533775-109.045828-51.810331-228.670728-24.34543-340.903841a4.814834 4.814834 0 0 1 6.171126-3.458543l27.058013 8.951523z"
        fill="#FBD2BD" p-id="4477"></path>
    <path
        d="M261.77102 304.331444c34.246358 12.274437 121.116821 53.166623 123.219073 94.465695a626.999947 626.999947 0 0 0 15.393907 109.249272 10.002649 10.002649 0 0 1-4.340132 10.714702c-40.824371 26.244238-69.781192 55.336689-106.807947 87.684238-25.267709-63.786384-39.169695-129.566517-41.705961-197.340397-1.356291-36.301139 3.390728-71.225642 14.24106-104.77351z"
        fill="#FF5646" p-id="4478"></path>
    <path
        d="M673.880159 316.131179c7.147656 38.566146 26.542623 71.747815 58.184901 99.551788-49.911523 4.475762-78.434331-15.821139-85.581987-60.897484-2.617642-16.499285 6.510199-29.384053 27.397086-38.654304z"
        fill="#FEFEFE" p-id="4479"></path>
    <path
        d="M360.712477 808.26151a550.111788 550.111788 0 0 1-39.739338-136.036027l95.686358-78.190198c2.983841-2.441325 5.045404-1.830993 6.171126 1.830993l43.808211 138.680795a5.086093 5.086093 0 0 1-3.729801 6.510199c-38.925563 8.680265-75.206358 39.061192-102.196556 67.204238z"
        fill="#FF5646" p-id="4480"></path>
    <path
        d="M320.973139 672.225483a550.111788 550.111788 0 0 0 39.739338 136.036027l-36.755497 45.232318a2.509139 2.509139 0 0 1-4.340132-0.74596l-44.079471-129.051126c-1.085033-3.099126-0.264477-6.56445 2.102252-8.883709l43.33351-42.58755z"
        fill="#FBD2BD" p-id="4481"></path>
    <path
        d="M392.720954 948.434225c3.797616-1.308821 5.696424-3.661987 5.696423-7.052715-0.311947-31.872848 5.72355-63.040424 18.106491-93.516291 16.777325-20.073113 39.786808-36.009536 69.035231-47.809272a11.325033 11.325033 0 0 1 14.783576 6.306755c6.46951 16.234808 9.995868 32.415364 10.579073 48.555232 2.305695 60.219338-52.759735 106.807947-110.944635 98.466755-4.021404-0.542517-6.442384-2.190411-7.256159-4.950464z"
        fill="#CD4C3D" p-id="4482"></path>
    <path
        d="M416.523868 847.865219c-12.38294 30.475868-18.418437 61.643444-18.106491 93.516291 0 3.390728-1.898808 5.743894-5.696423 7.052715-10.89102-5.242066-18.940609-13.156026-24.141987-23.735099a9.290596 9.290596 0 0 1-0.74596-6.510199c6.306755-25.837351 28.414305-50.860927 48.690861-70.323708z"
        fill="#FBD2BD" p-id="4483"></path>
</svg>